<?xml version="1.0" standalone="no"?>
<!DOCTYPE svg PUBLIC "-//W3C//DTD SVG 20010904//EN"
 "http://www.w3.org/TR/2001/REC-SVG-20010904/DTD/svg10.dtd">
<svg version="1.0" xmlns="http://www.w3.org/2000/svg"
 width="1248.000000pt" height="1248.000000pt" viewBox="0 0 1248.000000 1248.000000"
 preserveAspectRatio="xMidYMid meet">

<g transform="translate(0.000000,1248.000000) scale(0.100000,-0.100000)"
fill="#000000" stroke="none">
<path d="M2060 10400 c-91 -4 -198 -10 -237 -15 l-73 -7 0 -1454 c0 -800 2
-1454 4 -1454 2 0 82 10 178 21 218 27 557 30 723 6 299 -42 580 -129 915
-282 556 -255 944 -571 1249 -1020 96 -142 193 -304 391 -660 304 -547 471
-815 685 -1100 523 -698 1167 -1226 2015 -1655 892 -450 1693 -664 2579 -687
l244 -6 -6 699 c-4 384 -7 1035 -7 1447 l0 747 -107 0 c-434 0 -870 114 -1348
352 -520 259 -859 544 -1144 963 -100 146 -184 288 -406 685 -109 195 -232
411 -273 480 -543 909 -1150 1522 -2022 2043 -200 119 -666 352 -885 442 -672
278 -1278 421 -1920 455 -205 11 -298 11 -555 0z"/>
<path d="M2965 4935 c-217 -38 -450 -139 -622 -268 -115 -87 -248 -222 -322
-327 -106 -150 -198 -369 -236 -558 -14 -68 -16 -124 -13 -300 6 -242 20 -319
93 -503 75 -187 169 -324 330 -484 168 -167 347 -279 551 -343 183 -58 231
-65 459 -66 200 -1 215 1 320 28 384 99 676 305 886 625 231 352 292 822 157
1225 -161 482 -572 852 -1066 956 -129 28 -421 36 -537 15z"/>
</g>
</svg>
