<?xml version="1.0" standalone="no"?>
<!DOCTYPE svg PUBLIC "-//W3C//DTD SVG 20010904//EN"
 "http://www.w3.org/TR/2001/REC-SVG-20010904/DTD/svg10.dtd">
<svg version="1.0" xmlns="http://www.w3.org/2000/svg"
 width="3840.000000pt" height="2160.000000pt" viewBox="0 0 3840.000000 2160.000000"
 preserveAspectRatio="xMidYMid meet">

<g transform="translate(0.000000,2160.000000) scale(0.100000,-0.100000)"
fill="#000000" stroke="none">
<path d="M0 10800 l0 -10800 19200 0 19200 0 0 10800 0 10800 -19200 0 -19200
0 0 -10800z m5420 6400 c816 -47 1586 -268 2415 -694 817 -419 1451 -948 1957
-1632 203 -274 363 -532 641 -1034 366 -660 499 -854 753 -1100 200 -194 402
-334 709 -491 295 -152 521 -240 776 -303 197 -49 322 -65 542 -73 l187 -6 -2
-1421 -3 -1421 -220 3 c-542 6 -1044 93 -1600 277 -794 262 -1516 656 -2115
1153 -152 127 -500 475 -630 631 -292 352 -505 678 -850 1301 -204 368 -326
574 -425 715 -281 401 -606 669 -1110 914 -363 177 -674 278 -995 323 -190 26
-634 11 -847 -28 l-33 -6 0 1435 0 1435 83 7 c259 24 523 29 767 15z m13000
-5186 l0 -636 56 51 c162 149 336 214 569 213 271 0 502 -92 693 -276 101 -97
165 -181 226 -295 160 -304 195 -693 94 -1036 -89 -304 -293 -562 -548 -694
-167 -86 -306 -116 -504 -108 -242 9 -389 70 -548 226 l-68 65 0 -117 0 -117
-355 0 -355 0 0 1680 0 1680 370 0 370 0 0 -636z m-12120 -198 c501 -117 887
-464 1044 -938 48 -143 67 -242 73 -389 33 -728 -495 -1363 -1222 -1469 -113
-17 -315 -14 -431 5 -215 36 -450 136 -614 259 -178 134 -349 340 -439 529
-47 100 -93 242 -117 362 -27 134 -25 396 4 532 61 284 190 522 392 723 236
235 488 358 855 414 17 2 102 3 190 1 125 -3 183 -9 265 -29z m9727 -197 c149
-34 286 -111 386 -218 26 -28 50 -51 52 -51 3 0 5 52 5 115 l0 115 355 0 355
0 0 -1145 0 -1145 -355 0 -355 0 0 115 c0 63 -1 115 -2 115 -2 0 -37 -33 -79
-73 -169 -161 -356 -226 -626 -214 -148 6 -246 29 -370 87 -484 226 -739 813
-617 1415 50 245 171 465 350 635 242 231 578 324 901 249z m5979 10 c33 -6
65 -14 72 -18 9 -5 3 -96 -22 -364 -18 -197 -35 -360 -38 -362 -2 -2 -37 5
-78 15 -123 32 -276 45 -371 32 -151 -22 -235 -80 -293 -201 l-31 -66 -3 -687
-3 -688 -369 0 -370 0 0 1145 0 1145 355 0 355 0 0 -122 1 -123 21 30 c41 58
149 154 211 189 152 84 348 110 563 75z m1393 11 c197 -21 343 -85 477 -213
l84 -79 0 116 0 116 355 0 355 0 0 -1145 0 -1145 -355 0 -355 0 0 116 0 116
-84 -80 c-66 -62 -105 -89 -178 -125 -150 -72 -196 -82 -398 -81 -161 0 -182
2 -265 27 -418 126 -702 474 -781 957 -20 117 -13 397 11 505 83 374 287 655
584 809 104 53 235 93 346 105 44 5 85 9 91 10 7 0 57 -4 113 -9z m49 -3737
l2 -333 390 0 390 0 0 -325 0 -325 -390 0 -390 0 0 -383 c0 -315 3 -393 15
-435 35 -116 128 -188 262 -199 100 -8 198 16 330 82 59 30 108 53 110 52 2
-3 193 -429 234 -525 l19 -43 -68 -43 c-252 -163 -564 -237 -864 -206 -341 35
-554 172 -679 435 -86 182 -99 296 -99 837 l0 428 -215 0 -215 0 2 323 3 322
213 3 212 2 0 329 c0 180 3 331 7 334 4 4 169 6 367 5 l361 -3 3 -332z m-6953
-307 c171 -51 305 -127 429 -245 494 -471 499 -1367 10 -1846 -357 -351 -937
-391 -1264 -88 l-70 65 0 -571 0 -571 -365 0 -365 0 0 1615 0 1615 353 -2 352
-3 3 -113 3 -114 85 81 c115 109 258 179 419 204 17 3 95 4 175 2 121 -2 160
-7 235 -29z m2370 9 c75 -21 189 -73 248 -114 25 -17 75 -61 111 -98 l66 -67
0 122 0 122 355 0 355 0 -2 -1147 -3 -1148 -352 -3 -353 -2 0 121 0 121 -84
-79 c-133 -126 -275 -190 -475 -213 -183 -22 -368 12 -546 100 -310 153 -523
456 -601 855 -26 134 -24 387 5 522 105 497 433 843 875 923 78 14 330 4 401
-15z m3141 10 c42 -8 79 -16 80 -18 5 -5 -62 -716 -68 -722 -3 -3 -45 5 -94
17 -74 19 -117 23 -254 23 -160 0 -167 -1 -225 -28 -93 -44 -151 -109 -189
-212 -7 -20 -12 -256 -16 -715 l-5 -685 -365 0 -365 0 -3 1148 -2 1147 352 -2
353 -3 3 -123 3 -123 44 58 c68 91 175 169 289 210 118 43 321 55 462 28z
m4319 -14 c156 -46 295 -136 391 -251 57 -70 128 -211 156 -315 22 -79 23 -88
26 -922 l3 -843 -365 0 -365 0 -3 683 c-4 627 -5 686 -22 737 -53 162 -148
237 -311 247 -179 12 -306 -69 -368 -235 -22 -56 -22 -70 -27 -742 l-5 -685
-365 0 -365 0 -3 1148 -2 1147 352 -2 353 -3 3 -133 3 -133 38 48 c123 153
268 239 461 272 93 17 334 6 415 -18z m2395 4 c495 -110 818 -501 870 -1055
10 -103 6 -297 -6 -342 -5 -17 -51 -18 -779 -18 l-774 0 10 -32 c41 -145 146
-253 292 -301 83 -27 263 -29 356 -3 89 24 194 76 268 131 l63 47 234 -219
235 -218 -42 -43 c-90 -92 -272 -198 -434 -253 -523 -177 -1095 -74 -1415 253
-241 247 -361 624 -319 1008 62 568 410 956 946 1055 106 19 389 14 495 -10z
m2766 10 c42 -8 79 -16 81 -18 5 -6 -62 -715 -68 -722 -4 -3 -46 5 -95 17 -74
19 -116 23 -254 23 -161 0 -166 -1 -228 -29 -77 -36 -142 -104 -174 -184 l-23
-57 -5 -685 -5 -685 -365 0 -365 0 -3 1148 -2 1147 355 0 355 0 0 -127 0 -126
30 42 c96 133 239 221 410 256 89 18 262 18 356 0z m1564 4 c63 -5 171 -21
240 -35 123 -25 490 -140 490 -154 0 -8 -198 -561 -202 -565 -2 -2 -37 10 -78
26 -115 45 -300 97 -429 120 -136 25 -333 30 -400 10 -61 -18 -111 -69 -111
-113 0 -91 55 -114 425 -172 245 -39 362 -69 480 -125 257 -121 380 -318 378
-601 -3 -400 -245 -660 -708 -762 -129 -29 -488 -36 -677 -14 -174 20 -315 49
-446 92 -112 37 -272 111 -279 131 -4 9 226 537 244 562 1 2 49 -19 105 -46
183 -90 326 -130 543 -154 116 -12 295 -7 356 11 91 26 145 98 119 160 -26 62
-124 95 -400 136 -479 71 -712 189 -825 419 -53 106 -68 181 -68 320 1 188 47
331 148 457 119 148 343 257 604 293 120 16 340 18 491 4z"/>
<path d="M18753 10946 c-171 -42 -315 -194 -352 -374 -27 -128 -8 -289 45
-400 131 -271 517 -344 746 -143 166 147 217 442 114 658 -99 207 -327 313
-553 259z"/>
<path d="M15880 10949 c-25 -5 -77 -25 -117 -44 -292 -144 -354 -610 -114
-854 140 -144 368 -179 557 -86 120 58 212 176 249 316 20 72 19 236 -1 313
-66 254 -311 406 -574 355z"/>
<path d="M23370 10949 c-126 -25 -258 -129 -316 -249 -44 -91 -59 -160 -58
-270 2 -333 250 -559 559 -510 188 30 334 162 391 355 21 73 24 227 5 305 -64
265 -311 422 -581 369z"/>
<path d="M15975 6940 c-153 -25 -269 -109 -343 -248 -81 -151 -83 -366 -5
-530 35 -74 140 -180 213 -214 269 -125 573 1 671 278 29 83 36 246 15 337
-41 176 -158 309 -314 357 -72 22 -172 31 -237 20z"/>
<path d="M18725 6940 c-247 -41 -405 -246 -405 -524 1 -394 375 -635 713 -459
162 85 257 256 257 463 -1 297 -176 501 -450 523 -36 3 -87 2 -115 -3z"/>
<path d="M28344 6995 c-82 -18 -137 -47 -190 -102 -41 -41 -104 -156 -117
-210 l-5 -23 414 0 414 0 -6 28 c-14 56 -70 156 -114 202 -55 59 -127 96 -211
110 -80 12 -109 12 -185 -5z"/>
</g>
</svg>
